PathFileType  4	(X/Y/Z) C:\Users\antoi\Documents\MyRepositories\mobilecap\ResultsAnalysis
DataRate	CameraRate	NumFrames	NumMarkers	Units	OrigDataRate	OrigDataStartFrame	OrigNumFrames
100.0	100.0	4	51	mm	100.0	34	133
Frame#	Time	r_knee			r_shank_antsup			r_ankle			r_calc			r_5meta			r_toe			L_knee			L_shank_antsup			L_ankle			L_calc			L_5meta			L_toe			r_sh2			r_sh3			r_sh4			L_sh2			L_sh3			r_thigh1			r_thigh2			r_thigh3			r_thigh4			r_thigh5			L_thigh1			L_thigh2			L_thigh3			L_thigh4			r.ASIS			r.PSIS			L.ASIS			L.PSIS			C7			R_Shoulder			L_Shoulder			R_Sternum			L_Sternum			R_humerus			R_elbow_med			R_elbow_lat			R_forearm			R_wrist_radius			R_wrist_ulna			L_humerus			L_elbow_med			L_elbow_lat			L_forearm			L_wrist_radius			L_wrist_ulna			R_HJC			L_HJC			R_HJC_reg			L_HJC_reg			
		X1	Y1	Z1	X2	Y2	Z2	X3	Y3	Z3	X4	Y4	Z4	X5	Y5	Z5	X6	Y6	Z6	X7	Y7	Z7	X8	Y8	Z8	X9	Y9	Z9	X10	Y10	Z10	X11	Y11	Z11	X12	Y12	Z12	X13	Y13	Z13	X14	Y14	Z14	X15	Y15	Z15	X16	Y16	Z16	X17	Y17	Z17	X18	Y18	Z18	X19	Y19	Z19	X20	Y20	Z20	X21	Y21	Z21	X22	Y22	Z22	X23	Y23	Z23	X24	Y24	Z24	X25	Y25	Z25	X26	Y26	Z26	X27	Y27	Z27	X28	Y28	Z28	X29	Y29	Z29	X30	Y30	Z30	X31	Y31	Z31	X32	Y32	Z32	X33	Y33	Z33	X34	Y34	Z34	X35	Y35	Z35	X36	Y36	Z36	X37	Y37	Z37	X38	Y38	Z38	X39	Y39	Z39	X40	Y40	Z40	X41	Y41	Z41	X42	Y42	Z42	X43	Y43	Z43	X44	Y44	Z44	X45	Y45	Z45	X46	Y46	Z46	X47	Y47	Z47	X48	Y48	Z48	X49	Y49	Z49	X50	Y50	Z50	X51	Y51	Z51	

34	0.33000000	364.57203	495.99926	-10.60229	393.97467	424.37048	-40.01794	287.23987	96.30550	-46.05713	211.16613	67.15284	-64.89685	396.30476	43.79044	-41.04575	428.73107	69.79289	-108.70859	516.35850	530.30966	-288.58471	512.80365	433.22925	-295.21832	310.84759	195.49715	-267.63302	234.41280	197.89269	-218.51481	369.18790	85.46367	-298.96459	420.78976	92.64974	-248.08537	363.51108	312.59135	-18.72830	326.73119	441.34006	7.59008	296.70969	333.04569	7.86652	440.59401	486.37407	-290.74540	377.67100	381.25892	-295.15189	439.59735	810.68890	26.75417	432.34607	697.64805	11.71798	380.89596	676.69036	47.92934	332.89070	812.02812	65.68961	325.31167	695.36197	46.87121	427.37714	779.80668	-325.25636	499.35610	662.42445	-309.13733	336.67737	728.54687	-278.16374	411.76182	609.37161	-270.84861	442.48092	985.03840	-5.42624	243.89400	1015.95001	-66.33725	422.46202	968.62545	-254.54981	225.88764	1013.82183	-165.79968	248.28585	1432.36811	-126.29663	372.46251	1392.04872	33.36745	295.02399	1396.32409	-313.52303	386.76478	1392.79679	-127.16398	385.32183	1393.49802	-171.00416	396.62124	1261.67051	97.14978	333.14772	1048.11092	89.07375	371.74965	1068.92845	147.58505	455.09640	953.46514	139.26519	502.38166	827.86983	137.79680	486.90953	820.46312	169.73593	309.01143	1288.83977	-383.46286	230.47341	1060.52664	-373.48323	275.92884	1083.68275	-434.05976	341.39928	987.52271	-400.78175	383.90238	836.79768	-385.71740	380.89458	836.13231	-421.27781	365.74117	902.54406	-18.57556	346.34216	893.76688	-223.93849	377.42800	904.27017	-27.03390	347.98725	900.79122	-189.66342	
35	0.34000000	367.38861	495.75887	-10.98085	396.05662	423.99944	-40.45884	287.53553	96.52766	-46.56993	211.23369	67.27767	-65.11529	396.32544	43.84057	-41.11767	428.87311	69.66050	-108.84845	532.72970	532.77655	-288.29421	533.34779	435.00589	-295.61606	344.68025	185.90170	-270.12660	267.92023	183.75506	-221.71218	409.88573	79.61170	-300.91936	460.28639	89.78170	-249.62640	365.03392	312.39515	-19.22031	328.97552	441.31708	7.20978	298.37332	333.20702	7.46379	458.31877	484.13164	-291.89826	401.40827	375.65822	-296.96465	447.75322	809.20533	26.02871	438.79252	696.35570	10.59315	386.87025	676.17443	46.91729	341.15375	812.14274	65.13852	331.75533	695.60628	46.05938	442.28228	782.00073	-325.66372	514.94882	665.22659	-308.71384	350.98273	729.64533	-280.87568	426.92393	611.01409	-272.82598	452.45268	984.43308	-4.77700	254.27518	1015.70907	-67.57704	434.39384	969.52548	-254.10468	236.91542	1014.09486	-167.10795	259.42443	1432.61049	-126.78374	383.16981	1392.53463	33.13976	306.30034	1396.37290	-313.75642	397.70279	1393.05712	-127.30135	396.45048	1393.68939	-171.12908	408.29018	1262.35072	96.89115	347.36915	1048.03941	88.44213	385.82439	1069.16544	146.89343	471.22011	955.15899	137.34443	520.98633	830.49059	134.53104	505.68029	822.56194	166.44514	319.31428	1288.77484	-383.79674	237.94982	1061.47898	-373.58541	283.53812	1084.01197	-434.22553	347.42034	986.61063	-401.72302	387.02451	835.00535	-387.68135	383.90851	834.56476	-423.22929	375.65473	902.04466	-19.18370	358.11838	894.42649	-224.76157	387.66542	903.93743	-27.22082	359.27135	901.29818	-190.02602	
36	0.35000000	370.34946	495.49837	-11.40160	398.22768	423.60017	-40.93805	287.84127	96.75618	-47.06569	211.34150	67.43521	-65.33761	396.34605	43.88821	-41.19363	428.98026	69.51184	-108.97399	548.28985	534.64342	-288.00519	553.45174	436.51628	-295.93177	379.21274	176.26631	-272.77857	302.54723	169.37439	-225.03564	451.20807	74.21808	-303.02690	500.22022	87.32987	-251.34390	366.64632	312.19326	-19.71895	331.35591	441.28381	6.82247	300.15197	333.36805	7.07650	475.65858	481.17412	-293.31310	425.30258	369.57346	-299.04171	455.95261	807.63042	25.27883	445.29496	694.99459	9.45472	392.90143	675.58983	45.91315	349.51292	812.14489	64.52784	338.27148	695.77475	45.23608	456.96853	783.81231	-325.96785	529.90396	667.46944	-308.21780	364.96961	730.52435	-283.41455	441.48736	612.32478	-274.66612	462.48690	983.54209	-4.28853	264.72169	1015.29965	-68.83588	446.32096	970.10396	-253.79411	247.98603	1014.16789	-168.41893	270.57740	1432.62205	-127.31275	393.88655	1392.71137	32.91254	317.68840	1396.19108	-314.04816	408.71633	1393.03384	-127.43828	407.63238	1393.60333	-171.27262	419.95789	1262.73275	96.60580	361.51726	1047.71141	87.90852	399.90383	1069.14744	146.21015	487.35460	956.66733	135.28910	539.55830	832.97628	131.05675	524.50514	824.53910	162.97014	329.73387	1288.43900	-384.11753	245.49477	1062.21983	-373.63236	291.24160	1084.09316	-434.31395	353.52004	985.48861	-402.61302	390.07780	832.99481	-389.71425	386.97087	832.84712	-425.19097	385.61580	901.30392	-19.88241	369.83899	894.82120	-225.64366	397.90889	903.38341	-27.51619	370.52338	901.53253	-190.48116	
37	0.36000000	373.43838	495.22280	-11.82563	400.50242	423.18219	-41.40407	288.13402	97.00777	-47.52827	211.48157	67.63684	-65.55988	396.36863	43.93218	-41.26777	429.06501	69.35236	-109.07948	563.00741	535.87484	-287.71266	573.07356	437.86151	-296.07878	414.46306	166.78579	-275.58465	338.27255	154.99798	-228.48789	493.10410	69.47861	-305.25096	540.58849	85.52439	-253.20641	368.33413	311.98318	-20.17646	333.85526	441.25551	6.45101	302.01848	333.53977	6.71428	492.58796	477.59425	-294.87510	449.33167	363.16808	-301.33378	464.19481	805.97647	24.55389	451.79208	693.58699	8.38873	398.96786	674.94590	44.97596	357.92655	812.04811	63.89802	344.82755	695.88964	44.42710	471.33751	785.17913	-326.17651	544.19164	669.08938	-307.66830	378.59045	731.16511	-285.70779	455.38458	613.25532	-276.31932	472.58640	982.39374	-3.97523	275.26136	1014.75199	-70.12091	458.21974	970.35246	-253.62503	259.12936	1014.05103	-169.74784	281.75515	1432.40849	-127.87969	404.62172	1392.58220	32.68230	329.18248	1395.78312	-314.39115	419.81815	1392.73040	-127.57743	418.86388	1393.24130	-171.44334	431.62877	1262.82097	96.28966	375.63266	1047.11732	87.43595	413.99534	1068.87506	145.52499	503.48854	957.99079	133.11081	558.07615	835.32474	127.40089	543.34995	826.39339	159.32884	340.25818	1287.83733	-384.42597	253.14780	1062.73259	-373.59271	299.04711	1083.92912	-434.31840	359.71786	984.16316	-403.44823	393.06465	830.77148	-391.82303	390.11297	830.99605	-427.15920	395.63053	900.35159	-20.66798	381.49744	894.94719	-226.58224	408.14516	902.64633	-27.91954	381.73576	901.49962	-191.02650	
